Complete name                    : D:How.High.2001.720p.HDTV.x264-iLLHow.High.2001.720p.HDTV.x264-iLL.mkv
Format                           : Matroska
File size                        : 4.37 GiB
Duration                         : 1h 33mn
Overall bit rate                 : 6 698 Kbps
Encoded date                     : UTC 2010-05-09 17:08:31
Writing application              : mkvmerge v3.3.0 ('Language') built on Mar 24 2010 14:59:24
Writing library                  : libebml v0.8.0 + libmatroska v0.9.0

Video
ID                               : 1
Format                           : AVC
Format/Info                      : Advanced Video Codec
Format profile                   : High@L4.1
Format settings, CABAC           : Yes
Format settings, ReFrames        : 8 frames
Muxing mode                      : Container profile=Unknown@4.1
Codec ID                         : V_MPEG4/ISO/AVC
Duration                         : 1h 33mn
Bit rate                         : 6 322 Kbps
Width                            : 1 280 pixels
Height                           : 720 pixels
Display aspect ratio             : 16:9
Frame rate                       : 23.976 fps
Color space                      : YUV
Chroma subsampling               : 4:2:0
Bit depth                        : 8 bits
Scan type                        : Progressive
Bits/(Pixel*Frame)               : 0.286
Stream size                      : 4.03 GiB (92%)
Writing library                  : x264 core 94 r1570 d9db8b3
Language                         : English

Audio
ID                               : 2
Format                           : AC-3
Format/Info                      : Audio Coding 3
Mode extension                   : CM (complete main)
Codec ID                         : A_AC3
Duration                         : 1h 33mn
Bit rate mode                    : Constant
Bit rate                         : 384 Kbps
Channel(s)                       : 2 channels
Channel positions                : Front: L R
Sampling rate                    : 48.0 KHz
Video delay                      : 32ms
Stream size                      : 257 MiB (6%)

Text
ID                               : 3
Format                           : ASS
Codec ID                         : S_TEXT/ASS
Codec ID/Info                    : Advanced Sub Station Alpha